<?xml version="1.0" encoding="UTF-8"?>
<!DOCTYPE svg PUBLIC "-//W3C//DTD SVG 1.1//EN" "http://www.w3.org/Graphics/SVG/1.1/DTD/svg11.dtd">
<!-- Creator: CorelDRAW X8 -->
<svg xmlns="http://www.w3.org/2000/svg" xml:space="preserve" width="137px" height="137px" version="1.1" style="shape-rendering:geometricPrecision; text-rendering:geometricPrecision; image-rendering:optimizeQuality; fill-rule:evenodd; clip-rule:evenodd"
viewBox="0 0 21 21"
 xmlns:xlink="http://www.w3.org/1999/xlink">
 <defs>
  <style type="text/css">
   <![CDATA[
    .str0 {stroke:#D25FA4;stroke-width:0.312033}
    .fil0 {fill:none}
    .fil1 {fill:#6B317B}
   ]]>
  </style>
 </defs>
 <g id="Layer_x0020_1">
  <metadata id="CorelCorpID_0Corel-Layer"/>
  <circle class="fil0 str0" cx="11" cy="11" r="10"/>
  <circle class="fil0 str0" cx="11" cy="11" r="11"/>
  <g id="_918328256">
   <path class="fil1" d="M15 12c0,0 0,-1 0,-1 0,0 0,0 0,0 0,0 0,0 0,0 0,-1 0,-1 0,-1 1,0 1,2 0,2zm-1 -2c0,0 0,1 0,1 0,1 0,1 -1,2 -1,0 -2,1 -4,0 -1,0 -1,-1 -2,-2 0,0 0,-1 0,-1l7 0zm-8 0c0,3 4,5 7,4 0,-1 1,-1 1,-2 0,0 0,0 1,0 1,0 2,-1 1,-2 0,0 -1,0 -1,-1 0,0 -1,0 -1,0l-6 0c-1,0 -2,0 -2,1z"/>
   <path class="fil1" d="M5 14l0 0c0,0 0,0 1,1 0,0 1,0 1,0 2,0 3,1 4,1 1,0 4,-1 5,-2 0,0 0,0 0,0l0 0c0,0 0,0 0,0 0,0 0,-1 0,-1 -1,0 -1,0 -2,0 0,0 0,0 0,0 0,1 1,1 2,1 -1,0 -2,1 -3,1 -1,0 -4,0 -5,0 -1,0 -2,-1 -2,-1 0,0 1,0 1,-1 0,0 0,0 0,0 0,0 -1,0 -1,0 0,0 0,0 -1,1 0,0 0,0 0,0z"/>
   <path class="fil1" d="M8 11c0,0 0,0 0,0 0,0 0,1 1,1 0,0 0,0 0,0 0,0 1,1 1,1 0,0 0,-1 0,-1 0,0 0,0 0,0 0,0 -1,0 -1,0 0,-1 0,-1 0,-1 -1,0 -1,-1 -1,0z"/>
   <path class="fil1" d="M9 6c-1,0 0,1 0,2 0,0 0,0 0,1 0,0 0,0 1,0 0,0 -1,-2 -1,-3 0,0 0,0 0,0 0,0 0,0 0,0z"/>
   <path class="fil1" d="M10 6c0,0 0,0 0,0 0,1 0,1 0,1 1,1 1,1 1,2 0,0 0,0 0,0 1,-1 0,-2 0,-3 0,0 0,0 0,0 0,0 0,0 -1,0z"/>
   <path class="fil1" d="M12 6c-1,0 0,1 0,2 0,0 0,0 0,1 0,0 0,0 0,0 1,0 0,-2 0,-3 0,0 0,0 0,0 0,0 0,0 0,0z"/>
  </g>
 </g>
</svg>
