<?xml version="1.0" encoding="UTF-8"?>
<!DOCTYPE svg PUBLIC "-//W3C//DTD SVG 1.1//EN" "http://www.w3.org/Graphics/SVG/1.1/DTD/svg11.dtd">
<!-- Creator: CorelDRAW X8 -->
<svg xmlns="http://www.w3.org/2000/svg" xml:space="preserve" width="137px" height="137px" version="1.1" style="shape-rendering:geometricPrecision; text-rendering:geometricPrecision; image-rendering:optimizeQuality; fill-rule:evenodd; clip-rule:evenodd"
viewBox="0 0 55 55"
 xmlns:xlink="http://www.w3.org/1999/xlink">
 <defs>
  <style type="text/css">
   <![CDATA[
    .str0 {stroke:#D25FA4;stroke-width:0.805707}
    .fil0 {fill:none}
    .fil2 {fill:#6B317B}
    .fil1 {fill:#6B317B;fill-rule:nonzero}
   ]]>
  </style>
 </defs>
 <g id="Layer_x0020_1">
  <metadata id="CorelCorpID_0Corel-Layer"/>
  <circle class="fil0 str0" cx="28" cy="28" r="25"/>
  <circle class="fil0 str0" cx="28" cy="28" r="27"/>
  <g id="_918320192">
   <path class="fil1" d="M30 41c-2,1 -3,1 -5,0 1,0 1,0 1,0l0 0c0,-1 1,-2 0,-3 1,0 2,0 3,0 0,1 0,2 0,3 1,0 1,0 1,0zm6 -7c1,-1 1,-1 1,-2 1,0 2,1 3,1 0,0 0,0 1,0 -1,1 -2,2 -3,3 0,0 0,0 0,0 0,-1 -1,-2 -2,-2zm1 -11c0,0 0,0 0,-1 0,0 -1,0 -1,-1 1,0 2,-1 2,-2l0 0c0,0 0,0 0,0 1,0 1,1 2,2 0,0 0,1 1,2 -1,0 -1,0 -1,0l0 0 0 0c-1,0 -2,0 -3,0zm-8 -6c-1,0 -2,0 -3,0 1,-1 0,-2 0,-3 0,0 0,0 -1,0 2,0 3,0 5,0 0,0 0,0 0,0l-1 0 0 0c0,1 0,2 0,3zm-10 4c0,1 -1,2 -1,2 -1,0 -2,0 -3,0l0 0c0,0 0,0 0,0 0,-2 1,-3 2,-4 0,0 0,0 0,0 1,1 1,2 2,2zm-1 11c0,0 0,1 0,1 1,0 1,1 1,1 -1,0 -1,1 -2,2 0,0 0,0 0,0 -1,0 -1,-1 -1,-1 -1,-1 -1,-2 -1,-2 0,0 0,0 0,0 1,0 2,-1 3,-1z"/>
   <g>
    <path class="fil2" d="M19 40c0,0 0,0 0,1 0,0 0,0 1,0 0,0 0,0 1,1 0,0 0,0 1,-1 0,0 0,0 0,0 1,0 1,0 1,-1l0 0c0,0 0,0 0,-1 0,0 0,0 0,-1 0,0 0,0 0,0 0,-1 -1,-1 -1,-1 0,0 0,0 -1,0 0,0 0,0 -1,0 0,0 0,0 -1,0 0,0 0,1 0,1 0,0 0,0 0,1 0,0 0,0 0,1zm-2 0c0,1 1,2 2,3 1,0 2,0 3,0 1,0 2,-1 2,-2 1,-1 1,-2 1,-3 0,-1 -1,-2 -2,-2 -1,-1 -2,-1 -3,-1 -1,0 -2,1 -3,2 0,1 0,2 0,3z"/>
   </g>
   <g>
    <path class="fil2" d="M32 17c0,0 0,0 0,1 1,0 1,0 1,0l0 0c0,0 1,0 1,0 0,1 1,1 1,0 0,0 0,0 1,0 0,0 0,0 0,-1l0 0c1,0 1,0 1,-1 0,0 0,0 0,-1 0,0 -1,0 -1,0 0,-1 0,-1 -1,-1 0,0 0,0 0,0 -1,0 -1,0 -1,0 -1,0 -1,0 -1,0 0,0 -1,1 -1,1l0 0c0,0 0,0 0,1 0,0 0,0 0,1zm-2 0c1,1 1,2 2,3 1,0 2,0 3,0 1,0 2,-1 3,-2 0,-1 0,-2 0,-3 0,-1 -1,-2 -2,-2 -1,-1 -2,-1 -3,-1 -1,0 -2,1 -2,2 -1,1 -1,2 -1,3z"/>
   </g>
   <g>
    <path class="fil2" d="M34 41c0,1 0,1 1,1 0,-1 0,-1 0,-1l0 0c1,0 1,0 1,0 0,-1 1,-1 1,-1 0,-1 0,-1 0,-1 0,0 0,-1 -1,-1l0 0 0 0c0,0 0,-1 0,-1 -1,0 -1,0 -1,0 0,0 -1,0 -1,0 0,0 -1,0 -1,0l0 0 0 0 0 0c0,0 0,0 -1,1 0,0 0,0 0,0 0,1 0,1 0,1 0,1 0,1 0,1l0 0c0,1 1,1 1,1 0,0 0,0 1,0zm-1 2c1,0 2,0 3,0 1,-1 2,-2 2,-3 0,-1 0,-2 0,-3l0 0c-1,-1 -2,-2 -3,-2 -1,0 -2,0 -3,1l0 0c-1,0 -1,1 -2,2 0,1 0,2 1,3 0,1 1,2 2,2z"/>
   </g>
   <g>
    <path class="fil2" d="M20 18c1,1 1,1 1,0 1,0 1,0 1,0l0 0c0,0 1,0 1,0 0,-1 0,-1 0,-1 0,-1 0,-1 0,-1 0,-1 0,-1 0,-1l0 0c0,0 0,-1 -1,-1 0,0 0,0 0,0 -1,0 -1,0 -1,0 -1,0 -1,0 -1,0l0 0c-1,0 -1,0 -1,1 0,0 0,0 0,0 0,1 0,1 0,1 0,1 0,1 0,1 0,1 0,1 0,1 1,0 1,0 1,0zm0 2c1,0 2,0 3,0 1,-1 2,-2 2,-3 0,-1 0,-2 -1,-3l0 0c0,-1 -1,-2 -2,-2 -1,0 -2,0 -3,1l0 0c-1,0 -2,1 -2,2 0,1 0,2 0,3 1,1 2,2 3,2z"/>
   </g>
   <g>
    <path class="fil2" d="M43 29c0,0 0,0 0,0 0,-1 0,-1 0,-1l0 0 0 0c0,-1 0,-1 0,-1 0,-1 0,-1 0,-1 -1,0 -1,-1 -1,-1 0,0 -1,0 -1,0l0 0 0 0c0,0 -1,0 -1,0 0,0 -1,1 -1,1 0,0 0,0 0,1 0,0 -1,0 -1,1l0 0 0 0c0,0 1,0 1,1 0,0 0,0 0,0 0,1 1,1 1,1 0,0 0,0 1,0l0 0c0,0 1,0 1,0 0,0 0,0 1,-1l0 0zm1 1c0,0 1,-1 1,-2l0 0c0,-2 -1,-3 -1,-3 -1,-1 -2,-1 -3,-1l0 0c-1,0 -2,0 -3,1 -1,0 -1,1 -1,3l0 0c0,1 0,2 1,2 1,1 2,2 3,2l0 0c1,0 2,-1 3,-2z"/>
   </g>
   <g>
    <path class="fil2" d="M16 29c0,0 0,0 1,0 0,-1 0,-1 0,-1 0,-1 0,-1 0,-1 -1,-1 -1,-1 -1,-1l0 0c0,0 0,-1 -1,-1 0,0 0,0 -1,0 0,0 0,0 -1,0 0,0 0,1 0,1l0 0c-1,0 -1,0 -1,1 0,0 0,0 0,1 0,0 0,0 0,1l0 0c0,0 0,0 1,0 0,1 0,1 0,1 1,0 1,0 1,0l0 0c1,0 1,0 1,0l0 0c1,0 1,0 1,-1zm1 1c1,0 1,-1 1,-2 0,-2 0,-3 -1,-3 -1,-1 -2,-1 -3,-1 -1,0 -2,0 -3,1 0,0 -1,1 -1,3 0,1 1,2 1,2 1,1 2,2 3,2l0 0c1,0 2,-1 3,-2z"/>
   </g>
  </g>
 </g>
</svg>
