<?xml version="1.0" encoding="UTF-8"?>
<!DOCTYPE svg PUBLIC "-//W3C//DTD SVG 1.1//EN" "http://www.w3.org/Graphics/SVG/1.1/DTD/svg11.dtd">
<!-- Creator: CorelDRAW X8 -->
<svg xmlns="http://www.w3.org/2000/svg" xml:space="preserve" width="137px" height="137px" version="1.1" style="shape-rendering:geometricPrecision; text-rendering:geometricPrecision; image-rendering:optimizeQuality; fill-rule:evenodd; clip-rule:evenodd"
viewBox="0 0 25 25"
 xmlns:xlink="http://www.w3.org/1999/xlink">
 <defs>
  <style type="text/css">
   <![CDATA[
    .str0 {stroke:#D25FA4;stroke-width:0.367225}
    .fil0 {fill:none}
    .fil1 {fill:#6B317B}
   ]]>
  </style>
 </defs>
 <g id="Layer_x0020_1">
  <metadata id="CorelCorpID_0Corel-Layer"/>
  <circle class="fil0 str0" cx="13" cy="13" r="11"/>
  <circle class="fil0 str0" cx="13" cy="13" r="12"/>
  <g id="_918330080">
   <path class="fil1" d="M6 13l5 0 0 1c0,0 0,1 1,1l2 0c0,0 0,-1 0,-1l0 -1 5 0 0 4c0,0 0,1 -1,1l-11 0c-1,0 -1,-1 -1,-1l0 -4zm7 0l-1 0 0 1 1 0 0 -1zm-3 1l-3 0 0 3c0,0 0,0 0,0l0 0c0,0 0,0 0,0l11 0c0,0 0,0 0,0l0 0c0,0 1,0 1,0l0 -3 -4 0 0 0c0,0 0,1 -1,1l0 0c0,0 0,0 0,0l-2 0c-1,0 -1,0 -1,0l0 0c-1,0 -1,-1 -1,-1l0 0z"/>
   <path class="fil1" d="M7 12l12 0 0 -3c0,0 0,0 -1,0l0 0c0,0 0,0 0,0l-11 0c0,0 0,0 0,0 0,0 0,0 0,0l0 3zm8 -4l0 -1c0,0 0,0 0,0l0 0c0,0 0,0 -1,0l-3 0c0,0 0,0 -1,0 0,0 0,0 0,0l0 1 5 0zm-5 0l0 -1c0,-1 0,-1 1,-1l3 0c1,0 1,0 1,1l0 1 3 0c1,0 1,1 1,1l0 3 -13 0 0 -3c0,0 0,-1 1,-1l3 0z"/>
  </g>
 </g>
</svg>
