<?xml version="1.0" encoding="UTF-8"?>
<!DOCTYPE svg PUBLIC "-//W3C//DTD SVG 1.1//EN" "http://www.w3.org/Graphics/SVG/1.1/DTD/svg11.dtd">
<!-- Creator: CorelDRAW X8 -->
<svg xmlns="http://www.w3.org/2000/svg" xml:space="preserve" width="137px" height="137px" version="1.1" style="shape-rendering:geometricPrecision; text-rendering:geometricPrecision; image-rendering:optimizeQuality; fill-rule:evenodd; clip-rule:evenodd"
viewBox="0 0 40 40"
 xmlns:xlink="http://www.w3.org/1999/xlink">
 <defs>
  <style type="text/css">
   <![CDATA[
    .str1 {stroke:#6B317B;stroke-width:1.161}
    .str0 {stroke:#D25FA4;stroke-width:0.580446}
    .str2 {stroke:#6B317B;stroke-width:0.0835948}
    .fil0 {fill:none}
    .fil1 {fill:#6B317B}
   ]]>
  </style>
 </defs>
 <g id="Layer_x0020_1">
  <metadata id="CorelCorpID_0Corel-Layer"/>
  <circle class="fil0 str0" cx="20" cy="20" r="18"/>
  <circle class="fil0 str0" cx="20" cy="20" r="20"/>
  <g>
   <path class="fil1" d="M18 10c-2,0 -4,1 -5,2 -1,2 -2,3 -2,5 0,3 1,4 2,6 1,1 3,2 5,2 2,0 4,-1 5,-2 2,-2 3,-3 3,-6 0,-2 -1,-3 -3,-5 -1,-1 -3,-2 -5,-2zm0 -1c-5,0 -8,4 -8,8 0,5 3,9 8,9 5,0 9,-4 9,-9 0,-4 -4,-8 -9,-8z"/>
  </g>
  <polygon class="fil0 str1" points="29,31 32,28 28,24 26,23 24,25 25,27 "/>
  <path class="fil1 str2" d="M16 22c0,1 0,1 -1,1 0,0 1,1 2,1 0,0 1,0 1,0 1,0 3,0 4,-1 -1,0 -2,0 -2,-1 0,-1 1,0 1,-1 0,-1 0,-1 0,-2 1,0 1,0 1,-1 0,-1 0,0 0,-1 0,-1 0,-2 -1,-3 0,0 -2,-1 -3,-1 -2,0 -3,1 -3,2 0,1 0,1 0,2 0,1 -1,0 0,1 0,1 0,1 0,1 0,1 1,1 1,2 0,0 0,1 0,1z"/>
 </g>
</svg>
